<svg width="1350" height="51" viewBox="0 0 1350 51" fill="none" xmlns="http://www.w3.org/2000/svg">
<g opacity="0.9" filter="url(#filter0_d_381_38)">
<path d="M104.869 31L5 31L31.001 5L104.869 5V31Z" fill="#29ABDF"/>
<path d="M1244.87 31L1344.74 31L1318.74 5L1244.87 5V31Z" fill="#29ABDF"/>
<rect x="104.869" y="5" width="259" height="14" fill="#29ABDF"/>
<rect width="259" height="14" transform="matrix(-1 0 0 1 1244.87 5)" fill="#29ABDF"/>
<rect x="455.869" y="17" width="160" height="14" fill="#29ABDF"/>
<rect width="160" height="14" transform="matrix(-1 0 0 1 893.869 17)" fill="#29ABDF"/>
<path d="M443.014 5L470.871 31L376.184 31L364.032 18.8486L363.869 19.0107V5L443.014 5Z" fill="#29ABDF"/>
<path d="M906.725 5L878.867 31L973.555 31L985.706 18.8486L985.869 19.0107V5L906.725 5Z" fill="#29ABDF"/>
<path d="M733.869 31.001L718.425 46L631.742 46L616.296 31L615.869 31.4385V17L733.869 17V31.001Z" fill="#29ABDF"/>
</g>
<defs>
<filter id="filter0_d_381_38" x="0" y="0" width="1349.74" height="51" filterUnits="userSpaceOnUse" color-interpolation-filters="sRGB">
<feFlood flood-opacity="0" result="BackgroundImageFix"/>
<feColorMatrix in="SourceAlpha" type="matrix" values="0 0 0 0 0 0 0 0 0 0 0 0 0 0 0 0 0 0 127 0" result="hardAlpha"/>
<feOffset/>
<feGaussianBlur stdDeviation="2.5"/>
<feComposite in2="hardAlpha" operator="out"/>
<feColorMatrix type="matrix" values="0 0 0 0 0.137255 0 0 0 0 0.592157 0 0 0 0 0.780392 0 0 0 1 0"/>
<feBlend mode="normal" in2="BackgroundImageFix" result="effect1_dropShadow_381_38"/>
<feBlend mode="normal" in="SourceGraphic" in2="effect1_dropShadow_381_38" result="shape"/>
</filter>
</defs>
</svg>
