<svg width="371" height="34" viewBox="0 0 371 34" fill="none" xmlns="http://www.w3.org/2000/svg">
<g filter="url(#filter0_d_177_97)">
<path d="M3.26016 31.72C2.42016 31.72 2.00016 31.18 2.00016 30.1V28.12C2.00016 27.2 2.20682 26.56 2.62016 26.2C3.04682 25.8267 3.68016 25.6333 4.52016 25.62C4.85349 25.0067 5.20016 24.0667 5.56016 22.8C5.92016 21.5333 6.27349 20.0667 6.62016 18.4C6.96682 16.72 7.28016 14.9467 7.56016 13.08C7.84016 11.2133 8.06016 9.36 8.22016 7.52C8.39349 5.66667 8.47349 3.94667 8.46016 2.36H21.0402V25.64C21.8802 25.6667 22.4868 25.8667 22.8602 26.24C23.2468 26.6133 23.4402 27.24 23.4402 28.12V30.1C23.4402 31.18 23.0202 31.72 22.1802 31.72C21.3402 31.72 20.9202 31.18 20.9202 30.1V28.04H4.52016V30.1C4.52016 31.18 4.10016 31.72 3.26016 31.72ZM7.30016 25.52H18.5202V4.88H11.1002C11.0868 6.17333 10.9935 7.60667 10.8202 9.18C10.6602 10.74 10.4468 12.34 10.1802 13.98C9.91349 15.62 9.62016 17.1933 9.30016 18.7C8.98016 20.2067 8.64682 21.5533 8.30016 22.74C7.95349 23.9267 7.62016 24.8533 7.30016 25.52ZM37.0014 28.4C35.0947 28.4 33.4214 28.0133 31.9814 27.24C30.5414 26.4533 29.4147 25.34 28.6014 23.9C27.8014 22.46 27.4014 20.7533 27.4014 18.78V11.62C27.4014 9.63333 27.8014 7.92667 28.6014 6.5C29.4147 5.06 30.5414 3.95333 31.9814 3.18C33.4214 2.39333 35.0947 2 37.0014 2C38.9081 2 40.5814 2.39333 42.0214 3.18C43.4747 3.95333 44.6014 5.06 45.4014 6.5C46.2014 7.94 46.6014 9.64667 46.6014 11.62V18.78C46.6014 20.7267 46.2081 22.42 45.4214 23.86C44.6347 25.3 43.5214 26.42 42.0814 27.22C40.6414 28.0067 38.9481 28.4 37.0014 28.4ZM37.0014 25.88C39.2547 25.88 40.9947 25.2533 42.2214 24C43.4614 22.7467 44.0814 20.9867 44.0814 18.72V11.68C44.0814 9.38667 43.4681 7.62 42.2414 6.38C41.0281 5.14 39.2814 4.52 37.0014 4.52C34.7614 4.52 33.0214 5.14667 31.7814 6.4C30.5414 7.64 29.9214 9.4 29.9214 11.68V18.72C29.9214 20.9867 30.5414 22.7467 31.7814 24C33.0214 25.2533 34.7614 25.88 37.0014 25.88ZM52.303 2.36H66.883C67.963 2.36 68.503 2.78 68.503 3.62C68.503 4.46 67.963 4.88 66.883 4.88H54.823V9.06H60.823C62.5563 9.06 64.0963 9.48667 65.443 10.34C66.803 11.1933 67.8696 12.3533 68.643 13.82C69.4296 15.2733 69.823 16.9067 69.823 18.72C69.823 20.52 69.4363 22.1467 68.663 23.6C67.8896 25.04 66.823 26.1867 65.463 27.04C64.1163 27.8933 62.5696 28.32 60.823 28.32H53.483C52.6963 28.32 52.303 27.7867 52.303 26.72V2.36ZM60.823 11.58H54.823V25.8H60.823C62.1563 25.8 63.3096 25.4867 64.283 24.86C65.2563 24.2333 66.003 23.3867 66.523 22.32C67.043 21.24 67.303 20.0333 67.303 18.7C67.303 17.3533 67.043 16.1467 66.523 15.08C66.003 14 65.2563 13.1467 64.283 12.52C63.3096 11.8933 62.1563 11.58 60.823 11.58ZM76.1602 28.32C75.3202 28.32 74.9002 27.8333 74.9002 26.86V3.88C74.9002 2.8 75.2935 2.26 76.0802 2.26H83.4202C86.5402 2.26 88.8202 2.72667 90.2602 3.66C91.7002 4.58 92.4202 6.16 92.4202 8.4C92.4202 10.48 91.8135 12.08 90.6002 13.2C89.3868 14.3067 87.5935 14.86 85.2202 14.86H77.4202V26.86C77.4202 27.8333 77.0002 28.32 76.1602 28.32ZM77.4202 12.34H83.4202C84.9535 12.34 86.1935 12.2533 87.1402 12.08C88.1002 11.9067 88.8002 11.5467 89.2402 11C89.6802 10.4533 89.9002 9.62667 89.9002 8.52C89.9002 7.50667 89.7002 6.73333 89.3002 6.2C88.9135 5.65333 88.2468 5.28 87.3002 5.08C86.3668 4.88 85.0735 4.78 83.4202 4.78H77.4202V12.34ZM105.712 28.4C103.806 28.4 102.132 28.0133 100.692 27.24C99.2523 26.4533 98.1257 25.34 97.3123 23.9C96.5123 22.46 96.1123 20.7533 96.1123 18.78V11.62C96.1123 9.63333 96.5123 7.92667 97.3123 6.5C98.1257 5.06 99.2523 3.95333 100.692 3.18C102.132 2.39333 103.806 2 105.712 2C107.619 2 109.292 2.39333 110.732 3.18C112.186 3.95333 113.312 5.06 114.112 6.5C114.912 7.94 115.312 9.64667 115.312 11.62V18.78C115.312 20.7267 114.919 22.42 114.132 23.86C113.346 25.3 112.232 26.42 110.792 27.22C109.352 28.0067 107.659 28.4 105.712 28.4ZM105.712 25.88C107.966 25.88 109.706 25.2533 110.932 24C112.172 22.7467 112.792 20.9867 112.792 18.72V11.68C112.792 9.38667 112.179 7.62 110.952 6.38C109.739 5.14 107.992 4.52 105.712 4.52C103.472 4.52 101.732 5.14667 100.492 6.4C99.2523 7.64 98.6323 9.4 98.6323 11.68V18.72C98.6323 20.9867 99.2523 22.7467 100.492 24C101.732 25.2533 103.472 25.88 105.712 25.88ZM133.172 28.32C132.332 28.32 131.912 27.8 131.912 26.76V2.36H150.712V26.76C150.712 27.8 150.292 28.32 149.452 28.32C148.612 28.32 148.192 27.8 148.192 26.76V4.88H134.432V26.76C134.432 27.8 134.012 28.32 133.172 28.32ZM166.025 28.4C164.118 28.4 162.445 28.0133 161.005 27.24C159.565 26.4533 158.438 25.34 157.625 23.9C156.825 22.46 156.425 20.7533 156.425 18.78V11.62C156.425 9.63333 156.825 7.92667 157.625 6.5C158.438 5.06 159.565 3.95333 161.005 3.18C162.445 2.39333 164.118 2 166.025 2C167.932 2 169.605 2.39333 171.045 3.18C172.498 3.95333 173.625 5.06 174.425 6.5C175.225 7.94 175.625 9.64667 175.625 11.62V18.78C175.625 20.7267 175.232 22.42 174.445 23.86C173.658 25.3 172.545 26.42 171.105 27.22C169.665 28.0067 167.972 28.4 166.025 28.4ZM166.025 25.88C168.278 25.88 170.018 25.2533 171.245 24C172.485 22.7467 173.105 20.9867 173.105 18.72V11.68C173.105 9.38667 172.492 7.62 171.265 6.38C170.052 5.14 168.305 4.52 166.025 4.52C163.785 4.52 162.045 5.14667 160.805 6.4C159.565 7.64 158.945 9.4 158.945 11.68V18.72C158.945 20.9867 159.565 22.7467 160.805 24C162.045 25.2533 163.785 25.88 166.025 25.88ZM181.446 28.32C180.793 28.32 180.313 28.2 180.006 27.96C179.7 27.7333 179.546 27.4067 179.546 26.98C179.546 26.5667 179.646 26.2867 179.846 26.14C180.06 25.98 180.286 25.8933 180.526 25.88C180.78 25.8533 180.973 25.8267 181.106 25.8C181.52 25.7333 181.86 25.48 182.126 25.04C182.393 24.6 182.62 24.06 182.806 23.42C182.993 22.78 183.173 22.1267 183.346 21.46C183.68 20.2333 184.253 19.0533 185.066 17.92C185.88 16.7733 186.946 15.94 188.266 15.42C187.906 14.9933 187.553 14.5133 187.206 13.98C186.873 13.4333 186.446 12.72 185.926 11.84C185.113 10.4267 184.446 9.32 183.926 8.52C183.42 7.70667 182.96 7.11333 182.546 6.74C182.146 6.36667 181.7 6.14 181.206 6.06C180.78 5.99333 180.393 5.88667 180.046 5.74C179.7 5.59333 179.526 5.27333 179.526 4.78C179.526 4.36667 179.666 4.06 179.946 3.86C180.24 3.64667 180.633 3.54 181.126 3.54C182.1 3.54 183.086 3.95333 184.086 4.78C185.1 5.59333 186.053 6.8 186.946 8.4C187.56 9.45333 188.093 10.38 188.546 11.18C189.013 11.98 189.433 12.6533 189.806 13.2C190.193 13.7333 190.546 14.14 190.866 14.42C191.186 14.6867 191.506 14.82 191.826 14.82H192.466V5.12C192.466 4.62667 192.58 4.24667 192.806 3.98C193.033 3.71334 193.36 3.58 193.786 3.58C194.64 3.58 195.066 4.09333 195.066 5.12V14.82H195.706C196.106 14.82 196.533 14.56 196.986 14.04C197.453 13.52 197.913 12.8933 198.366 12.16C198.82 11.4133 199.233 10.7133 199.606 10.06C200.033 9.31333 200.5 8.56 201.006 7.8C201.513 7.04 202.046 6.34 202.606 5.7C203.166 5.04667 203.76 4.52667 204.386 4.14C205.026 3.74 205.686 3.54 206.366 3.54C206.86 3.54 207.253 3.65333 207.546 3.88C207.853 4.09333 208.006 4.42 208.006 4.86C208.006 5.28667 207.846 5.57333 207.526 5.72C207.22 5.85333 206.82 5.96667 206.326 6.06C205.446 6.22 204.666 6.81333 203.986 7.84C203.32 8.85333 202.526 10.1867 201.606 11.84C201.086 12.76 200.66 13.4733 200.326 13.98C199.993 14.4867 199.633 14.9667 199.246 15.42C200.38 15.8867 201.28 16.4933 201.946 17.24C202.626 17.9733 203.16 18.7933 203.546 19.7C203.946 20.6067 204.273 21.54 204.526 22.5C204.713 23.14 204.873 23.6933 205.006 24.16C205.14 24.6267 205.306 25 205.506 25.28C205.72 25.5467 206.026 25.72 206.426 25.8C206.666 25.84 206.906 25.8867 207.146 25.94C207.386 25.9933 207.586 26.1 207.746 26.26C207.92 26.4067 208.006 26.66 208.006 27.02C208.006 27.8867 207.42 28.32 206.246 28.32C205.086 28.32 204.146 27.9467 203.426 27.2C202.706 26.44 202.166 25.4867 201.806 24.34C201.393 22.9533 200.973 21.74 200.546 20.7C200.133 19.6467 199.566 18.8267 198.846 18.24C198.126 17.64 197.093 17.34 195.746 17.34H195.066V26.86C195.066 27.3 194.946 27.6533 194.706 27.92C194.466 28.1867 194.146 28.32 193.746 28.32C193.346 28.32 193.033 28.1867 192.806 27.92C192.58 27.6533 192.466 27.3 192.466 26.86V17.34H191.786C190.746 17.34 189.886 17.5467 189.206 17.96C188.54 18.36 188 18.8933 187.586 19.56C187.173 20.2133 186.826 20.92 186.546 21.68C186.226 22.5867 185.933 23.44 185.666 24.24C185.413 25.04 185.113 25.7467 184.766 26.36C184.433 26.9733 184.006 27.4533 183.486 27.8C182.966 28.1467 182.286 28.32 181.446 28.32ZM211.553 28.68C211.193 28.68 210.893 28.5733 210.653 28.36C210.413 28.1467 210.293 27.88 210.293 27.56C210.293 27.2667 210.339 27.0067 210.433 26.78L219.693 2.36H222.413L231.693 26.78C231.773 27.0067 231.813 27.2667 231.813 27.56C231.813 27.88 231.693 28.1467 231.453 28.36C231.226 28.5733 230.926 28.68 230.553 28.68C229.953 28.68 229.526 28.3333 229.273 27.64L226.473 20.18H215.633L212.853 27.64C212.546 28.3333 212.113 28.68 211.553 28.68ZM216.633 17.66H225.473L221.013 6.1L216.633 17.66ZM251.457 28.32C250.617 28.32 250.197 27.7867 250.197 26.72V4.88H242.097C241.203 4.88 240.59 5.03333 240.257 5.34C239.923 5.64667 239.757 6.2 239.757 7V22.78C239.757 24.1133 239.59 25.1667 239.257 25.94C238.937 26.7 238.423 27.24 237.717 27.56C237.023 27.88 236.123 28.04 235.017 28.04C233.91 28.04 233.357 27.62 233.357 26.78C233.357 25.94 233.917 25.52 235.037 25.52C235.797 25.52 236.31 25.3733 236.577 25.08C236.857 24.7733 236.997 24.2267 236.997 23.44V7.62C236.997 6.28667 237.143 5.24 237.437 4.48C237.73 3.72 238.223 3.18 238.917 2.86C239.623 2.52667 240.59 2.36 241.817 2.36H252.717V26.72C252.717 27.7867 252.297 28.32 251.457 28.32ZM268.017 28.4C266.11 28.4 264.437 28.0133 262.997 27.24C261.557 26.4533 260.43 25.34 259.617 23.9C258.817 22.46 258.417 20.7533 258.417 18.78V11.62C258.417 9.63333 258.817 7.92667 259.617 6.5C260.43 5.06 261.557 3.95333 262.997 3.18C264.437 2.39333 266.11 2 268.017 2C269.924 2 271.597 2.39333 273.037 3.18C274.49 3.95333 275.617 5.06 276.417 6.5C277.217 7.94 277.617 9.64667 277.617 11.62V18.78C277.617 20.7267 277.224 22.42 276.437 23.86C275.65 25.3 274.537 26.42 273.097 27.22C271.657 28.0067 269.964 28.4 268.017 28.4ZM268.017 25.88C270.27 25.88 272.01 25.2533 273.237 24C274.477 22.7467 275.097 20.9867 275.097 18.72V11.68C275.097 9.38667 274.484 7.62 273.257 6.38C272.044 5.14 270.297 4.52 268.017 4.52C265.777 4.52 264.037 5.14667 262.797 6.4C261.557 7.64 260.937 9.4 260.937 11.68V18.72C260.937 20.9867 261.557 22.7467 262.797 24C264.037 25.2533 265.777 25.88 268.017 25.88ZM284.479 28.04C283.692 28.04 283.299 27.5 283.299 26.42V3.98C283.299 2.9 283.692 2.36 284.479 2.36H291.759C294.892 2.36 297.185 2.82667 298.639 3.76C300.092 4.69333 300.819 6.32 300.819 8.64C300.819 9.70667 300.665 10.62 300.359 11.38C300.065 12.1267 299.612 12.74 298.999 13.22C300.172 13.7133 301.045 14.4933 301.619 15.56C302.205 16.6133 302.499 18.02 302.499 19.78V20.74C302.499 22.62 302.185 24.0933 301.559 25.16C300.932 26.2133 299.932 26.96 298.559 27.4C297.199 27.8267 295.412 28.04 293.199 28.04H284.479ZM285.819 25.52H293.199C294.399 25.52 295.465 25.4733 296.399 25.38C297.345 25.2733 298.092 25.0267 298.639 24.64C299.172 24.28 299.525 23.7867 299.699 23.16C299.885 22.52 299.979 21.7133 299.979 20.74V19.84C299.979 18.7067 299.872 17.8467 299.659 17.26C299.445 16.66 299.092 16.2 298.599 15.88C298.079 15.52 297.432 15.2933 296.659 15.2C295.885 15.1067 294.852 15.06 293.559 15.06H285.819V25.52ZM285.819 12.54H291.759C293.425 12.54 294.732 12.44 295.679 12.24C296.625 12.0267 297.299 11.6467 297.699 11.1C298.099 10.5533 298.299 9.76667 298.299 8.74C298.299 7.72667 298.099 6.94667 297.699 6.4C297.312 5.85333 296.639 5.48 295.679 5.28C294.732 5.08 293.425 4.98 291.759 4.98H285.819V12.54ZM306.709 28.68C306.349 28.68 306.049 28.5733 305.809 28.36C305.569 28.1467 305.449 27.88 305.449 27.56C305.449 27.2667 305.496 27.0067 305.589 26.78L314.849 2.36H317.569L326.849 26.78C326.929 27.0067 326.969 27.2667 326.969 27.56C326.969 27.88 326.849 28.1467 326.609 28.36C326.382 28.5733 326.082 28.68 325.709 28.68C325.109 28.68 324.682 28.3333 324.429 27.64L321.629 20.18H310.789L308.009 27.64C307.702 28.3333 307.269 28.68 306.709 28.68ZM311.789 17.66H320.629L316.169 6.1L311.789 17.66ZM337.573 28.32C337.146 28.32 336.813 28.1933 336.573 27.94C336.346 27.6867 336.233 27.3267 336.233 26.86V4.88H330.253C329.773 4.88 329.393 4.77333 329.113 4.56C328.846 4.33333 328.713 4.02 328.713 3.62C328.713 3.22 328.846 2.91334 329.113 2.7C329.393 2.47333 329.773 2.36 330.253 2.36H344.893C345.92 2.36 346.433 2.78 346.433 3.62C346.433 4.46 345.92 4.88 344.893 4.88H338.973V26.86C338.973 27.3133 338.846 27.6667 338.593 27.92C338.353 28.1867 338.013 28.32 337.573 28.32ZM351.822 28.32C351.036 28.32 350.642 27.7867 350.642 26.72V3.82C350.642 2.84667 351.062 2.36 351.902 2.36C352.742 2.36 353.162 2.84 353.162 3.8V9.06H359.162C360.896 9.06 362.436 9.48667 363.782 10.34C365.142 11.1933 366.209 12.3533 366.982 13.82C367.769 15.2733 368.162 16.9067 368.162 18.72C368.162 20.52 367.776 22.1467 367.002 23.6C366.229 25.04 365.162 26.1867 363.802 27.04C362.456 27.8933 360.909 28.32 359.162 28.32H351.822ZM353.162 25.8H359.162C360.496 25.8 361.649 25.4867 362.622 24.86C363.596 24.2333 364.342 23.3867 364.862 22.32C365.382 21.24 365.642 20.0333 365.642 18.7C365.642 17.3533 365.382 16.1467 364.862 15.08C364.342 14 363.596 13.1467 362.622 12.52C361.649 11.8933 360.496 11.58 359.162 11.58H353.162V25.8Z" fill="#29ABDF"/>
</g>
<defs>
<filter id="filter0_d_177_97" x="0" y="0" width="370.163" height="33.72" filterUnits="userSpaceOnUse" color-interpolation-filters="sRGB">
<feFlood flood-opacity="0" result="BackgroundImageFix"/>
<feColorMatrix in="SourceAlpha" type="matrix" values="0 0 0 0 0 0 0 0 0 0 0 0 0 0 0 0 0 0 127 0" result="hardAlpha"/>
<feOffset/>
<feGaussianBlur stdDeviation="1"/>
<feComposite in2="hardAlpha" operator="out"/>
<feColorMatrix type="matrix" values="0 0 0 0 0.160784 0 0 0 0 0.670588 0 0 0 0 0.87451 0 0 0 1 0"/>
<feBlend mode="normal" in2="BackgroundImageFix" result="effect1_dropShadow_177_97"/>
<feBlend mode="normal" in="SourceGraphic" in2="effect1_dropShadow_177_97" result="shape"/>
</filter>
</defs>
</svg>
